<svg width="17" height="45" viewBox="0 0 17 45" fill="none" xmlns="http://www.w3.org/2000/svg">
<path d="M15.5833 37.9688C15.5833 41.8458 12.4058 45 8.50001 45C4.59426 45 1.41667 41.8458 1.41667 37.9688C1.41667 34.0917 4.59426 30.9375 8.50001 30.9375C12.4058 30.9375 15.5833 34.0917 15.5833 37.9688ZM2.23657 2.21476L3.44073 26.121C3.49731 27.2436 4.43072 28.125 5.56308 28.125H11.4369C12.5693 28.125 13.5027 27.2436 13.5593 26.121L14.7634 2.21476C14.8241 1.00986 13.8564 0 12.6411 0H4.35891C3.14359 0 2.17592 1.00986 2.23657 2.21476Z" fill="#E7816B"/>
</svg>
